<?xml version="1.0" encoding="UTF-8" standalone="no"?>
<svg
   xmlns:dc="http://purl.org/dc/elements/1.1/"
   xmlns:cc="http://creativecommons.org/ns#"
   xmlns:rdf="http://www.w3.org/1999/02/22-rdf-syntax-ns#"
   xmlns:svg="http://www.w3.org/2000/svg"
   xmlns="http://www.w3.org/2000/svg"
   xmlns:sodipodi="http://sodipodi.sourceforge.net/DTD/sodipodi-0.dtd"
   xmlns:inkscape="http://www.inkscape.org/namespaces/inkscape"
   sodipodi:docname="drawing.svg"
   inkscape:version="1.0 (1.0+r73+1)"
   id="svg8"
   version="1.1"
   viewBox="0 0 380 216"
   height="216mm"
   width="380mm">
  <defs
     id="defs2" />
  <sodipodi:namedview
     inkscape:window-maximized="1"
     inkscape:window-y="0"
     inkscape:window-x="1366"
     inkscape:window-height="1052"
     inkscape:window-width="1920"
     showgrid="false"
     inkscape:document-rotation="0"
     inkscape:current-layer="g264"
     inkscape:document-units="mm"
     inkscape:cy="541.29905"
     inkscape:cx="892.54501"
     inkscape:zoom="0.7"
     inkscape:pageshadow="2"
     inkscape:pageopacity="0.0"
     borderopacity="1.0"
     bordercolor="#666666"
     pagecolor="#ffffff"
     id="base" />
  <metadata
     id="metadata5">
    <rdf:RDF>
      <cc:Work
         rdf:about="">
        <dc:format>image/svg+xml</dc:format>
        <dc:type
           rdf:resource="http://purl.org/dc/dcmitype/StillImage" />
        <dc:title></dc:title>
      </cc:Work>
    </rdf:RDF>
  </metadata>
  <g
     id="layer1"
     inkscape:groupmode="layer"
     inkscape:label="Layer 1">
    <g
       transform="matrix(0.26458333,0,0,0.26458333,-113.39285,61.61012)"
       id="g264"
       style="fill:none">
      <rect
         y="-233.08739"
         x="428.62427"
         width="1440"
         height="820"
         fill="#8257e5"
         id="rect10" />
      <path
         d="m 1609.3943,71.147606 c 0,5.642 -4.56,10.217 -10.2,10.217 -5.63,0 -10.2,-4.575 -10.2,-10.217 0,-5.643 4.57,-10.217 10.2,-10.217 5.62,0 10.2,4.574 10.2,10.217 z"
         stroke="#04d361"
         stroke-width="3"
         stroke-miterlimit="10"
         stroke-linecap="round"
         stroke-linejoin="round"
         id="path12" />
      <path
         d="m 1606.5743,78.195606 7.2,7.226"
         stroke="#04d361"
         stroke-width="3"
         stroke-miterlimit="10"
         stroke-linecap="round"
         stroke-linejoin="round"
         id="path14" />
      <path
         d="m 865.47227,41.066606 10.734,10.749"
         stroke="#04d361"
         stroke-width="3"
         stroke-miterlimit="10"
         stroke-linecap="round"
         stroke-linejoin="round"
         id="path16" />
      <path
         d="m 876.20627,41.066606 -10.734,10.749"
         stroke="#04d361"
         stroke-width="3"
         stroke-miterlimit="10"
         stroke-linecap="round"
         stroke-linejoin="round"
         id="path18" />
      <path
         d="m 1480.7843,294.54561 10.73,10.749"
         stroke="#04d361"
         stroke-width="3"
         stroke-miterlimit="10"
         stroke-linecap="round"
         stroke-linejoin="round"
         id="path20" />
      <path
         d="m 1491.5143,294.54561 -10.73,10.749"
         stroke="#04d361"
         stroke-width="3"
         stroke-miterlimit="10"
         stroke-linecap="round"
         stroke-linejoin="round"
         id="path22" />
      <path
         d="m 894.28127,389.04561 v 15.2"
         stroke="#04d361"
         stroke-width="3"
         stroke-miterlimit="10"
         stroke-linecap="round"
         stroke-linejoin="round"
         id="path24" />
      <path
         d="m 901.89027,396.64461 h -15.198"
         stroke="#04d361"
         stroke-width="3"
         stroke-miterlimit="10"
         stroke-linecap="round"
         stroke-linejoin="round"
         id="path26" />
      <path
         d="m 689.32327,138.15961 c 0,5.09 -4.124,9.238 -9.226,9.238 -5.083,0 -9.225,-4.13 -9.225,-9.238 0,-5.091 4.124,-9.238 9.225,-9.238 5.102,0.018 9.226,4.147 9.226,9.238 z"
         stroke="#04d361"
         stroke-width="3"
         stroke-miterlimit="10"
         stroke-linecap="round"
         stroke-linejoin="round"
         id="path28" />
      <path
         d="m 1232.2523,-101.03139 c 0,5.090996 -4.124,9.237996 -9.225,9.237996 -5.084,0 -9.226,-4.129 -9.226,-9.237996 0,-5.09 4.124,-9.238 9.226,-9.238 5.101,0.018 9.225,4.148 9.225,9.238 z"
         stroke="#04d361"
         stroke-width="3"
         stroke-miterlimit="10"
         stroke-linecap="round"
         stroke-linejoin="round"
         id="path30" />
      <path
         d="m 1367.5953,441.49761 c 0,5.091 -4.124,9.238 -9.225,9.238 -5.084,0 -9.225,-4.13 -9.225,-9.238 0,-5.091 4.123,-9.238 9.225,-9.238 5.101,0.018 9.225,4.147 9.225,9.238 z"
         stroke="#04d361"
         stroke-width="3"
         stroke-miterlimit="10"
         stroke-linecap="round"
         stroke-linejoin="round"
         id="path32" />
      <path
         d="m 592.77027,265.60361 c 1.845,0 3.341,-1.497 3.341,-3.345 0,-1.848 -1.496,-3.346 -3.341,-3.346 -1.845,0 -3.341,1.498 -3.341,3.346 0,1.848 1.496,3.345 3.341,3.345 z"
         fill="#9871f5"
         id="path34" />
      <path
         d="m 616.10827,265.60361 c 1.845,0 3.341,-1.497 3.341,-3.345 0,-1.848 -1.496,-3.346 -3.341,-3.346 -1.846,0 -3.341,1.498 -3.341,3.346 0,1.848 1.495,3.345 3.341,3.345 z"
         fill="#9871f5"
         id="path36" />
      <path
         d="m 639.42927,265.60361 c 1.845,0 3.341,-1.497 3.341,-3.345 0,-1.848 -1.496,-3.346 -3.341,-3.346 -1.845,0 -3.341,1.498 -3.341,3.346 0,1.848 1.496,3.345 3.341,3.345 z"
         fill="#9871f5"
         id="path38" />
      <path
         d="m 662.76827,265.60361 c 1.846,0 3.342,-1.497 3.342,-3.345 0,-1.848 -1.496,-3.346 -3.342,-3.346 -1.845,0 -3.341,1.498 -3.341,3.346 0,1.848 1.496,3.345 3.341,3.345 z"
         fill="#9871f5"
         id="path40" />
      <path
         d="m 686.08927,265.60361 c 1.845,0 3.341,-1.497 3.341,-3.345 0,-1.848 -1.496,-3.346 -3.341,-3.346 -1.846,0 -3.341,1.498 -3.341,3.346 0,1.848 1.495,3.345 3.341,3.345 z"
         fill="#9871f5"
         id="path42" />
      <path
         d="m 709.42827,265.60361 c 1.845,0 3.341,-1.497 3.341,-3.345 0,-1.848 -1.496,-3.346 -3.341,-3.346 -1.846,0 -3.342,1.498 -3.342,3.346 0,1.848 1.496,3.345 3.342,3.345 z"
         fill="#9871f5"
         id="path44" />
      <path
         d="m 592.76927,288.95661 c 1.846,0 3.341,-1.498 3.341,-3.346 0,-1.847 -1.495,-3.345 -3.341,-3.345 -1.845,0 -3.341,1.498 -3.341,3.345 0,1.848 1.496,3.346 3.341,3.346 z"
         fill="#9871f5"
         id="path46" />
      <path
         d="m 616.10827,288.95661 c 1.845,0 3.341,-1.498 3.341,-3.346 0,-1.847 -1.496,-3.345 -3.341,-3.345 -1.846,0 -3.341,1.498 -3.341,3.345 0,1.848 1.495,3.346 3.341,3.346 z"
         fill="#9871f5"
         id="path48" />
      <path
         d="m 639.42927,288.95661 c 1.846,0 3.342,-1.498 3.342,-3.346 0,-1.847 -1.496,-3.345 -3.342,-3.345 -1.845,0 -3.341,1.498 -3.341,3.345 0,1.848 1.496,3.346 3.341,3.346 z"
         fill="#9871f5"
         id="path50" />
      <path
         d="m 662.76827,288.95661 c 1.846,0 3.342,-1.498 3.342,-3.346 0,-1.847 -1.496,-3.345 -3.342,-3.345 -1.845,0 -3.341,1.498 -3.341,3.345 0,1.848 1.496,3.346 3.341,3.346 z"
         fill="#9871f5"
         id="path52" />
      <path
         d="m 686.08927,288.95661 c 1.845,0 3.341,-1.498 3.341,-3.346 0,-1.847 -1.496,-3.345 -3.341,-3.345 -1.846,0 -3.341,1.498 -3.341,3.345 0,1.848 1.495,3.346 3.341,3.346 z"
         fill="#9871f5"
         id="path54" />
      <path
         d="m 709.42827,288.95661 c 1.845,0 3.341,-1.498 3.341,-3.346 0,-1.847 -1.496,-3.345 -3.341,-3.345 -1.846,0 -3.342,1.498 -3.342,3.345 0,1.848 1.496,3.346 3.342,3.346 z"
         fill="#9871f5"
         id="path56" />
      <path
         d="m 592.76927,312.32761 c 1.846,0 3.341,-1.498 3.341,-3.346 0,-1.848 -1.495,-3.345 -3.341,-3.345 -1.845,0 -3.341,1.497 -3.341,3.345 0,1.848 1.496,3.346 3.341,3.346 z"
         fill="#9871f5"
         id="path58" />
      <path
         d="m 616.10827,312.32761 c 1.845,0 3.341,-1.498 3.341,-3.346 0,-1.848 -1.496,-3.345 -3.341,-3.345 -1.846,0 -3.341,1.497 -3.341,3.345 0,1.848 1.495,3.346 3.341,3.346 z"
         fill="#9871f5"
         id="path60" />
      <path
         d="m 639.42927,312.32761 c 1.846,0 3.342,-1.498 3.342,-3.346 0,-1.848 -1.496,-3.345 -3.342,-3.345 -1.845,0 -3.341,1.497 -3.341,3.345 0,1.848 1.496,3.346 3.341,3.346 z"
         fill="#9871f5"
         id="path62" />
      <path
         d="m 662.76827,312.32761 c 1.846,0 3.342,-1.498 3.342,-3.346 0,-1.848 -1.496,-3.345 -3.342,-3.345 -1.845,0 -3.341,1.497 -3.341,3.345 0,1.848 1.496,3.346 3.341,3.346 z"
         fill="#9871f5"
         id="path64" />
      <path
         d="m 686.08927,312.32761 c 1.845,0 3.341,-1.498 3.341,-3.346 0,-1.848 -1.496,-3.345 -3.341,-3.345 -1.846,0 -3.341,1.497 -3.341,3.345 0,1.848 1.495,3.346 3.341,3.346 z"
         fill="#9871f5"
         id="path66" />
      <path
         d="m 709.42827,312.32761 c 1.845,0 3.341,-1.498 3.341,-3.346 0,-1.848 -1.496,-3.345 -3.341,-3.345 -1.846,0 -3.342,1.497 -3.342,3.345 0,1.848 1.496,3.346 3.342,3.346 z"
         fill="#9871f5"
         id="path68" />
      <path
         d="m 592.76927,335.68061 c 1.846,0 3.341,-1.498 3.341,-3.346 0,-1.848 -1.495,-3.346 -3.341,-3.346 -1.845,0 -3.341,1.498 -3.341,3.346 0,1.848 1.496,3.346 3.341,3.346 z"
         fill="#9871f5"
         id="path70" />
      <path
         d="m 616.10827,335.68061 c 1.845,0 3.341,-1.498 3.341,-3.346 0,-1.848 -1.496,-3.346 -3.341,-3.346 -1.846,0 -3.341,1.498 -3.341,3.346 0,1.848 1.495,3.346 3.341,3.346 z"
         fill="#9871f5"
         id="path72" />
      <path
         d="m 639.42927,335.68061 c 1.846,0 3.342,-1.498 3.342,-3.346 0,-1.848 -1.496,-3.346 -3.342,-3.346 -1.845,0 -3.341,1.498 -3.341,3.346 0,1.848 1.496,3.346 3.341,3.346 z"
         fill="#9871f5"
         id="path74" />
      <path
         d="m 662.76827,335.68061 c 1.846,0 3.342,-1.498 3.342,-3.346 0,-1.848 -1.496,-3.346 -3.342,-3.346 -1.845,0 -3.341,1.498 -3.341,3.346 0,1.848 1.496,3.346 3.341,3.346 z"
         fill="#9871f5"
         id="path76" />
      <path
         d="m 686.08927,335.68061 c 1.845,0 3.341,-1.498 3.341,-3.346 0,-1.848 -1.496,-3.346 -3.341,-3.346 -1.846,0 -3.341,1.498 -3.341,3.346 0,1.848 1.495,3.346 3.341,3.346 z"
         fill="#9871f5"
         id="path78" />
      <path
         d="m 709.42827,335.68061 c 1.845,0 3.341,-1.498 3.341,-3.346 0,-1.848 -1.496,-3.346 -3.341,-3.346 -1.846,0 -3.342,1.498 -3.342,3.346 0,1.848 1.496,3.346 3.342,3.346 z"
         fill="#9871f5"
         id="path80" />
      <path
         d="m 1362.6003,32.530606 c 1.846,0 3.342,-1.498 3.342,-3.346 0,-1.848 -1.496,-3.346 -3.342,-3.346 -1.845,0 -3.341,1.498 -3.341,3.346 0,1.848 1.496,3.346 3.341,3.346 z"
         fill="#9871f5"
         id="path82" />
      <path
         d="m 1385.9213,32.530606 c 1.845,0 3.341,-1.498 3.341,-3.346 0,-1.848 -1.496,-3.346 -3.341,-3.346 -1.845,0 -3.341,1.498 -3.341,3.346 0,1.848 1.496,3.346 3.341,3.346 z"
         fill="#9871f5"
         id="path84" />
      <path
         d="m 1409.2603,32.530606 c 1.845,0 3.341,-1.498 3.341,-3.346 0,-1.848 -1.496,-3.346 -3.341,-3.346 -1.846,0 -3.342,1.498 -3.342,3.346 0,1.848 1.496,3.346 3.342,3.346 z"
         fill="#9871f5"
         id="path86" />
      <path
         d="m 1362.6003,55.900606 c 1.845,0 3.341,-1.498 3.341,-3.346 0,-1.847 -1.496,-3.345 -3.341,-3.345 -1.845,0 -3.341,1.498 -3.341,3.345 0,1.848 1.496,3.346 3.341,3.346 z"
         fill="#9871f5"
         id="path88" />
      <path
         d="m 1385.9213,55.900606 c 1.845,0 3.341,-1.498 3.341,-3.345 0,-1.848 -1.496,-3.346 -3.341,-3.346 -1.845,0 -3.341,1.498 -3.341,3.346 0,1.847 1.496,3.345 3.341,3.345 z"
         fill="#9871f5"
         id="path90" />
      <path
         d="m 1409.2603,55.900606 c 1.845,0 3.341,-1.498 3.341,-3.345 0,-1.848 -1.496,-3.346 -3.341,-3.346 -1.846,0 -3.342,1.498 -3.342,3.346 0,1.847 1.496,3.345 3.342,3.345 z"
         fill="#9871f5"
         id="path92" />
      <path
         d="m 850.32927,-89.654394 c 1.845,0 3.341,-1.498 3.341,-3.345 0,-1.848 -1.496,-3.346 -3.341,-3.346 -1.845,0 -3.341,1.498 -3.341,3.346 0,1.847 1.496,3.345 3.341,3.345 z"
         fill="#9871f5"
         id="path94" />
      <path
         d="m 873.64927,-89.654394 c 1.845,0 3.341,-1.498 3.341,-3.345 0,-1.848 -1.496,-3.346 -3.341,-3.346 -1.845,0 -3.341,1.498 -3.341,3.346 0,1.847 1.496,3.345 3.341,3.345 z"
         fill="#9871f5"
         id="path96" />
      <path
         d="m 896.98827,-89.654394 c 1.845,0 3.341,-1.498 3.341,-3.345 0,-1.848 -1.496,-3.346 -3.341,-3.346 -1.846,0 -3.342,1.498 -3.342,3.346 0,1.847 1.496,3.345 3.342,3.345 z"
         fill="#9871f5"
         id="path98" />
      <path
         d="m 850.32827,-66.283394 c 1.846,0 3.342,-1.498 3.342,-3.346 0,-1.848 -1.496,-3.346 -3.342,-3.346 -1.845,0 -3.341,1.498 -3.341,3.346 0,1.848 1.496,3.346 3.341,3.346 z"
         fill="#9871f5"
         id="path100" />
      <path
         d="m 873.64927,-66.283394 c 1.845,0 3.341,-1.498 3.341,-3.346 0,-1.848 -1.496,-3.346 -3.341,-3.346 -1.845,0 -3.341,1.498 -3.341,3.346 0,1.848 1.496,3.346 3.341,3.346 z"
         fill="#9871f5"
         id="path102" />
      <path
         d="m 896.98927,-66.283394 c 1.845,0 3.341,-1.498 3.341,-3.346 0,-1.848 -1.496,-3.346 -3.341,-3.346 -1.846,0 -3.342,1.498 -3.342,3.346 0,1.848 1.496,3.346 3.342,3.346 z"
         fill="#9871f5"
         id="path104" />
      <path
         d="m 1705.2843,265.60361 c 1.84,0 3.34,-1.497 3.34,-3.345 0,-1.848 -1.5,-3.346 -3.34,-3.346 -1.85,0 -3.34,1.498 -3.34,3.346 0,1.848 1.49,3.345 3.34,3.345 z"
         fill="#9871f5"
         id="path106" />
      <path
         d="m 1705.2843,288.97461 c 1.84,0 3.34,-1.498 3.34,-3.346 0,-1.847 -1.5,-3.345 -3.34,-3.345 -1.85,0 -3.34,1.498 -3.34,3.345 0,1.848 1.49,3.346 3.34,3.346 z"
         fill="#9871f5"
         id="path108" />
      <path
         d="m 1705.2843,312.32761 c 1.84,0 3.34,-1.498 3.34,-3.346 0,-1.848 -1.5,-3.346 -3.34,-3.346 -1.85,0 -3.34,1.498 -3.34,3.346 0,1.848 1.49,3.346 3.34,3.346 z"
         fill="#9871f5"
         id="path110" />
      <path
         d="m 1705.2843,335.69861 c 1.84,0 3.34,-1.498 3.34,-3.346 0,-1.848 -1.5,-3.346 -3.34,-3.346 -1.85,0 -3.34,1.498 -3.34,3.346 0,1.848 1.49,3.346 3.34,3.346 z"
         fill="#9871f5"
         id="path112" />
      <path
         d="m 1705.2843,359.05061 c 1.84,0 3.34,-1.497 3.34,-3.345 0,-1.848 -1.5,-3.346 -3.34,-3.346 -1.85,0 -3.34,1.498 -3.34,3.346 0,1.848 1.49,3.345 3.34,3.345 z"
         fill="#9871f5"
         id="path114" />
      <path
         d="m 1705.2843,382.42161 c 1.84,0 3.34,-1.498 3.34,-3.346 0,-1.848 -1.5,-3.345 -3.34,-3.345 -1.85,0 -3.34,1.497 -3.34,3.345 0,1.848 1.49,3.346 3.34,3.346 z"
         fill="#9871f5"
         id="path116" />
      <path
         d="m 1705.2843,405.77461 c 1.84,0 3.34,-1.498 3.34,-3.346 0,-1.848 -1.5,-3.346 -3.34,-3.346 -1.85,0 -3.34,1.498 -3.34,3.346 0,1.848 1.49,3.346 3.34,3.346 z"
         fill="#9871f5"
         id="path118" />
      <path
         d="m 1681.9443,265.60361 c 1.85,0 3.34,-1.497 3.34,-3.345 0,-1.848 -1.49,-3.346 -3.34,-3.346 -1.84,0 -3.34,1.498 -3.34,3.346 0,1.848 1.5,3.345 3.34,3.345 z"
         fill="#9871f5"
         id="path120" />
      <path
         d="m 1681.9443,288.97461 c 1.85,0 3.34,-1.498 3.34,-3.346 0,-1.847 -1.49,-3.345 -3.34,-3.345 -1.84,0 -3.34,1.498 -3.34,3.345 0,1.848 1.5,3.346 3.34,3.346 z"
         fill="#9871f5"
         id="path122" />
      <path
         d="m 1681.9443,312.32761 c 1.85,0 3.34,-1.498 3.34,-3.346 0,-1.848 -1.49,-3.346 -3.34,-3.346 -1.84,0 -3.34,1.498 -3.34,3.346 0,1.848 1.5,3.346 3.34,3.346 z"
         fill="#9871f5"
         id="path124" />
      <path
         d="m 1681.9443,335.69861 c 1.85,0 3.34,-1.498 3.34,-3.346 0,-1.848 -1.49,-3.346 -3.34,-3.346 -1.84,0 -3.34,1.498 -3.34,3.346 0,1.848 1.5,3.346 3.34,3.346 z"
         fill="#9871f5"
         id="path126" />
      <path
         d="m 1681.9443,359.05061 c 1.85,0 3.34,-1.497 3.34,-3.345 0,-1.848 -1.49,-3.346 -3.34,-3.346 -1.84,0 -3.34,1.498 -3.34,3.346 0,1.848 1.5,3.345 3.34,3.345 z"
         fill="#9871f5"
         id="path128" />
      <path
         d="m 1681.9443,382.42161 c 1.85,0 3.34,-1.498 3.34,-3.346 0,-1.848 -1.49,-3.345 -3.34,-3.345 -1.84,0 -3.34,1.497 -3.34,3.345 0,1.848 1.5,3.346 3.34,3.346 z"
         fill="#9871f5"
         id="path130" />
      <path
         d="m 1681.9443,405.77461 c 1.85,0 3.34,-1.498 3.34,-3.346 0,-1.848 -1.49,-3.346 -3.34,-3.346 -1.84,0 -3.34,1.498 -3.34,3.346 0,1.848 1.5,3.346 3.34,3.346 z"
         fill="#9871f5"
         id="path132" />
      <path
         d="m 1658.6243,265.60361 c 1.84,0 3.34,-1.497 3.34,-3.345 0,-1.848 -1.5,-3.346 -3.34,-3.346 -1.85,0 -3.34,1.498 -3.34,3.346 0,1.848 1.49,3.345 3.34,3.345 z"
         fill="#9871f5"
         id="path134" />
      <path
         d="m 1658.6243,288.97461 c 1.84,0 3.34,-1.498 3.34,-3.346 0,-1.847 -1.5,-3.345 -3.34,-3.345 -1.85,0 -3.34,1.498 -3.34,3.345 0,1.848 1.49,3.346 3.34,3.346 z"
         fill="#9871f5"
         id="path136" />
      <path
         d="m 1658.6243,312.32761 c 1.84,0 3.34,-1.498 3.34,-3.346 0,-1.848 -1.5,-3.346 -3.34,-3.346 -1.85,0 -3.34,1.498 -3.34,3.346 0,1.848 1.49,3.346 3.34,3.346 z"
         fill="#9871f5"
         id="path138" />
      <path
         d="m 1658.6243,335.69861 c 1.84,0 3.34,-1.498 3.34,-3.346 0,-1.848 -1.5,-3.346 -3.34,-3.346 -1.85,0 -3.34,1.498 -3.34,3.346 0,1.848 1.49,3.346 3.34,3.346 z"
         fill="#9871f5"
         id="path140" />
      <path
         d="m 1658.6243,359.05061 c 1.84,0 3.34,-1.497 3.34,-3.345 0,-1.848 -1.5,-3.346 -3.34,-3.346 -1.85,0 -3.34,1.498 -3.34,3.346 0,1.848 1.49,3.345 3.34,3.345 z"
         fill="#9871f5"
         id="path142" />
      <path
         d="m 1658.6243,382.42161 c 1.84,0 3.34,-1.498 3.34,-3.346 0,-1.848 -1.5,-3.345 -3.34,-3.345 -1.85,0 -3.34,1.497 -3.34,3.345 0,1.848 1.49,3.346 3.34,3.346 z"
         fill="#9871f5"
         id="path144" />
      <path
         d="m 1658.6243,405.77461 c 1.84,0 3.34,-1.498 3.34,-3.346 0,-1.848 -1.5,-3.346 -3.34,-3.346 -1.85,0 -3.34,1.498 -3.34,3.346 0,1.848 1.49,3.346 3.34,3.346 z"
         fill="#9871f5"
         id="path146" />
      <path
         d="m 1635.2843,265.60361 c 1.85,0 3.34,-1.497 3.34,-3.345 0,-1.848 -1.49,-3.346 -3.34,-3.346 -1.84,0 -3.34,1.498 -3.34,3.346 0,1.848 1.5,3.345 3.34,3.345 z"
         fill="#9871f5"
         id="path148" />
      <path
         d="m 1635.2843,288.97461 c 1.85,0 3.34,-1.498 3.34,-3.346 0,-1.847 -1.49,-3.345 -3.34,-3.345 -1.85,0 -3.34,1.498 -3.34,3.345 0,1.848 1.49,3.346 3.34,3.346 z"
         fill="#9871f5"
         id="path150" />
      <path
         d="m 1635.2843,312.32761 c 1.85,0 3.34,-1.498 3.34,-3.346 0,-1.848 -1.49,-3.345 -3.34,-3.345 -1.85,0 -3.34,1.497 -3.34,3.345 0,1.848 1.49,3.346 3.34,3.346 z"
         fill="#9871f5"
         id="path152" />
      <path
         d="m 1635.2843,335.69861 c 1.85,0 3.34,-1.498 3.34,-3.346 0,-1.848 -1.49,-3.346 -3.34,-3.346 -1.85,0 -3.34,1.498 -3.34,3.346 0,1.848 1.49,3.346 3.34,3.346 z"
         fill="#9871f5"
         id="path154" />
      <path
         d="m 1635.2843,359.05061 c 1.85,0 3.34,-1.497 3.34,-3.345 0,-1.848 -1.49,-3.346 -3.34,-3.346 -1.85,0 -3.34,1.498 -3.34,3.346 0,1.848 1.49,3.345 3.34,3.345 z"
         fill="#9871f5"
         id="path156" />
      <path
         d="m 1635.2843,382.42161 c 1.85,0 3.34,-1.498 3.34,-3.346 0,-1.848 -1.49,-3.345 -3.34,-3.345 -1.85,0 -3.34,1.497 -3.34,3.345 0,1.848 1.49,3.346 3.34,3.346 z"
         fill="#9871f5"
         id="path158" />
      <path
         d="m 1635.2843,405.77461 c 1.85,0 3.34,-1.498 3.34,-3.346 0,-1.848 -1.49,-3.346 -3.34,-3.346 -1.85,0 -3.34,1.498 -3.34,3.346 0,1.848 1.49,3.346 3.34,3.346 z"
         fill="#9871f5"
         id="path160" />
      <path
         d="m 918.25027,169.56061 c -11.952,0 -17.928,-6.39 -17.928,-19.17 0,-6.408 1.566,-11.196 4.698,-14.364 3.132,-3.204 7.542,-4.806 13.23,-4.806 3.132,0 5.94,0.54 8.424,1.62 2.52,1.044 4.5,2.664 5.94,4.86 1.476,2.16 2.214,4.806 2.214,7.938 h -8.046 c 0,-2.412 -0.774,-4.302 -2.322,-5.67 -1.548,-1.404 -3.564,-2.106 -6.048,-2.106 -3.384,0 -5.904,1.008 -7.56,3.024 -1.656,2.016 -2.484,4.914 -2.484,8.694 v 1.62 c 0,7.812 3.348,11.718 10.044,11.718 2.628,0 4.716,-0.684 6.264,-2.052 1.584,-1.368 2.376,-3.258 2.376,-5.67 h 7.776 c 0,3.168 -0.72,5.832 -2.16,7.992 -1.44,2.124 -3.402,3.726 -5.886,4.806 -2.484,1.044 -5.328,1.566 -8.532,1.566 z m 29.142,0 c -2.196,0 -4.212,-0.576 -6.048,-1.728 -1.836,-1.152 -2.754,-3.24 -2.754,-6.264 0,-3.636 1.494,-6.21 4.482,-7.722 2.988,-1.548 7.218,-2.322 12.69,-2.322 v -1.998 c 0,-1.26 -0.288,-2.232 -0.864,-2.916 -0.54,-0.684 -1.584,-1.026 -3.132,-1.026 -1.656,0 -2.844,0.252 -3.564,0.756 -0.684,0.504 -1.026,1.098 -1.026,1.782 v 0.81 h -7.128 c -0.036,-0.216 -0.054,-0.612 -0.054,-1.188 0,-2.376 1.044,-4.284 3.132,-5.724 2.124,-1.44 4.932,-2.16 8.424,-2.16 3.888,0 6.786,0.792 8.694,2.376 1.944,1.584 2.916,3.87 2.916,6.858 v 12.528 c 0,0.648 0.18,1.134 0.54,1.458 0.36,0.288 0.81,0.432 1.35,0.432 h 1.512 v 5.184 c -1.152,0.576 -2.574,0.864 -4.266,0.864 -1.476,0 -2.718,-0.324 -3.726,-0.972 -0.972,-0.648 -1.638,-1.566 -1.998,-2.754 h -0.324 c -1.044,1.224 -2.25,2.16 -3.618,2.808 -1.332,0.612 -3.078,0.918 -5.238,0.918 z m 2.322,-5.832 c 2.088,0 3.618,-0.576 4.59,-1.728 0.972,-1.188 1.458,-2.754 1.458,-4.698 v -0.864 c -6.444,0 -9.666,1.44 -9.666,4.32 0,0.9 0.288,1.62 0.864,2.16 0.612,0.54 1.53,0.81 2.754,0.81 z m 30.654,5.832 c -3.6,0 -6.39,-1.224 -8.37,-3.672 -1.98,-2.484 -2.97,-6.228 -2.97,-11.232 0,-4.896 0.99,-8.586 2.97,-11.07 2.016,-2.484 4.68,-3.726 7.992,-3.726 1.908,0 3.582,0.342 5.022,1.026 1.476,0.684 2.628,1.656 3.456,2.916 h 0.324 v -13.932 h 7.398 v 39.042 h -6.318 l -0.486,-3.726 h -0.378 c -0.9,1.44 -2.106,2.538 -3.618,3.294 -1.512,0.72 -3.186,1.08 -5.022,1.08 z m 2.376,-6.426 c 4.032,0 6.048,-2.646 6.048,-7.938 v -0.864 c 0,-5.364 -2.016,-8.046 -6.048,-8.046 -2.196,0 -3.762,0.666 -4.698,1.998 -0.936,1.296 -1.404,3.276 -1.404,5.94 v 0.972 c 0,2.664 0.468,4.662 1.404,5.994 0.936,1.296 2.502,1.944 4.698,1.944 z m 27.66603,6.426 c -2.196,0 -4.212,-0.576 -6.048,-1.728 -1.836,-1.152 -2.754,-3.24 -2.754,-6.264 0,-3.636 1.494,-6.21 4.482,-7.722 2.988,-1.548 7.218,-2.322 12.69,-2.322 v -1.998 c 0,-1.26 -0.288,-2.232 -0.864,-2.916 -0.54,-0.684 -1.584,-1.026 -3.132,-1.026 -1.656,0 -2.844,0.252 -3.564,0.756 -0.684,0.504 -1.026,1.098 -1.026,1.782 v 0.81 h -7.128 c -0.036,-0.216 -0.054,-0.612 -0.054,-1.188 0,-2.376 1.044,-4.284 3.132,-5.724 2.124,-1.44 4.932,-2.16 8.424,-2.16 3.888,0 6.786,0.792 8.694,2.376 1.944,1.584 2.916,3.87 2.916,6.858 v 12.528 c 0,0.648 0.18,1.134 0.54,1.458 0.36,0.288 0.81,0.432 1.35,0.432 h 1.512 v 5.184 c -1.152,0.576 -2.574,0.864 -4.266,0.864 -1.476,0 -2.718,-0.324 -3.726,-0.972 -0.972,-0.648 -1.638,-1.566 -1.998,-2.754 h -0.324 c -1.044,1.224 -2.25,2.16 -3.618,2.808 -1.332,0.612 -3.078,0.918 -5.238,0.918 z m 2.322,-5.832 c 2.088,0 3.618,-0.576 4.59,-1.728 0.972,-1.188 1.458,-2.754 1.458,-4.698 v -0.864 c -6.444,0 -9.666,1.44 -9.666,4.32 0,0.9 0.288,1.62 0.864,2.16 0.612,0.54 1.53,0.81 2.754,0.81 z m 32.49,5.832 c -3.96,0 -7.074,-0.81 -9.342,-2.43 -2.232,-1.656 -3.348,-3.852 -3.348,-6.588 l 0.054,-0.648 h 7.182 v 0.378 c 0.036,1.26 0.594,2.178 1.674,2.754 1.116,0.54 2.466,0.81 4.05,0.81 1.476,0 2.736,-0.198 3.78,-0.594 1.044,-0.396 1.566,-1.044 1.566,-1.944 0,-1.008 -0.54,-1.764 -1.62,-2.268 -1.044,-0.504 -2.7,-1.008 -4.968,-1.512 -2.34,-0.54 -4.248,-1.08 -5.724,-1.62 -1.476,-0.576 -2.754,-1.458 -3.834,-2.646 -1.08,-1.188 -1.62,-2.772 -1.62,-4.752 0,-2.772 1.152,-4.896 3.456,-6.372 2.34,-1.512 5.346,-2.268 9.018,-2.268 3.42,0 6.246,0.702 8.478,2.106 2.232,1.368 3.348,3.24 3.348,5.616 l -0.054,1.242 h -7.182 v -0.324 c 0,-0.936 -0.45,-1.656 -1.35,-2.16 -0.864,-0.504 -2.034,-0.756 -3.51,-0.756 -1.476,0 -2.646,0.198 -3.51,0.594 -0.864,0.396 -1.296,0.954 -1.296,1.674 0,0.9 0.486,1.566 1.458,1.998 1.008,0.432 2.61,0.864 4.806,1.296 2.412,0.54 4.374,1.08 5.886,1.62 1.512,0.54 2.826,1.422 3.942,2.646 1.116,1.224 1.674,2.88 1.674,4.968 0,6.12 -4.338,9.18 -13.014,9.18 z m 26.28,0 c -2.664,0 -4.572,-0.72 -5.724,-2.16 -1.152,-1.44 -1.728,-3.258 -1.728,-5.454 v -15.39 h -3.402 v -6.048 h 3.564 l 1.242,-7.992 h 5.994 v 7.992 h 4.914 v 6.048 h -4.914 v 14.634 c 0,1.548 0.774,2.322 2.322,2.322 h 2.592 v 5.184 c -0.612,0.216 -1.386,0.414 -2.322,0.594 -0.9,0.18 -1.746,0.27 -2.538,0.27 z m 10.368,-29.052 h 6.318 l 0.594,4.59 h 0.378 c 0.612,-1.62 1.404,-2.898 2.376,-3.834 0.972,-0.936 2.25,-1.404 3.834,-1.404 1.044,0 1.98,0.162 2.808,0.486 v 6.912 h -2.052 c -2.412,0 -4.158,0.666 -5.238,1.998 -1.08,1.296 -1.62,3.276 -1.62,5.94 v 13.716 h -7.398 z m 33.624,29.052 c -4.86,0 -8.478,-1.206 -10.854,-3.618 -2.376,-2.412 -3.564,-6.156 -3.564,-11.232 0,-5.076 1.188,-8.82 3.564,-11.232 2.376,-2.412 5.994,-3.618 10.854,-3.618 4.86,0 8.478,1.206 10.854,3.618 2.412,2.412 3.618,6.156 3.618,11.232 0,5.076 -1.206,8.82 -3.618,11.232 -2.376,2.412 -5.994,3.618 -10.854,3.618 z m 0,-6.048 c 2.412,0 4.158,-0.684 5.238,-2.052 1.08,-1.404 1.62,-3.51 1.62,-6.318 v -0.864 c 0,-2.808 -0.54,-4.896 -1.62,-6.264 -1.08,-1.404 -2.826,-2.106 -5.238,-2.106 -2.412,0 -4.158,0.702 -5.238,2.106 -1.044,1.368 -1.566,3.456 -1.566,6.264 v 0.864 c 0,2.808 0.522,4.914 1.566,6.318 1.08,1.368 2.826,2.052 5.238,2.052 z m 47.177,6.048 c -4.536,0 -7.938,-1.206 -10.206,-3.618 -2.232,-2.412 -3.348,-6.156 -3.348,-11.232 0,-5.04 1.116,-8.766 3.348,-11.178 2.268,-2.448 5.67,-3.672 10.206,-3.672 3.78,0 6.786,0.972 9.018,2.916 2.268,1.908 3.402,4.716 3.402,8.424 h -7.452 c 0,-1.728 -0.45,-3.06 -1.35,-3.996 -0.9,-0.936 -2.16,-1.404 -3.78,-1.404 -2.016,0 -3.51,0.72 -4.482,2.16 -0.936,1.404 -1.404,3.51 -1.404,6.318 v 0.864 c 0,2.808 0.486,4.932 1.458,6.372 1.008,1.404 2.61,2.106 4.806,2.106 1.548,0 2.772,-0.468 3.672,-1.404 0.936,-0.972 1.404,-2.304 1.404,-3.996 h 7.128 c 0,3.708 -1.116,6.534 -3.348,8.478 -2.232,1.908 -5.256,2.862 -9.072,2.862 z m 30.87,0 c -4.86,0 -8.478,-1.206 -10.854,-3.618 -2.376,-2.412 -3.564,-6.156 -3.564,-11.232 0,-5.076 1.188,-8.82 3.564,-11.232 2.376,-2.412 5.994,-3.618 10.854,-3.618 4.86,0 8.478,1.206 10.854,3.618 2.412,2.412 3.618,6.156 3.618,11.232 0,5.076 -1.206,8.82 -3.618,11.232 -2.376,2.412 -5.994,3.618 -10.854,3.618 z m 0,-6.048 c 2.412,0 4.158,-0.684 5.238,-2.052 1.08,-1.404 1.62,-3.51 1.62,-6.318 v -0.864 c 0,-2.808 -0.54,-4.896 -1.62,-6.264 -1.08,-1.404 -2.826,-2.106 -5.238,-2.106 -2.412,0 -4.158,0.702 -5.238,2.106 -1.044,1.368 -1.566,3.456 -1.566,6.264 v 0.864 c 0,2.808 0.522,4.914 1.566,6.318 1.08,1.368 2.826,2.052 5.238,2.052 z m 20.376,-23.004 h 6.318 l 0.54,3.726 h 0.378 c 2.304,-2.916 5.256,-4.374 8.856,-4.374 2.916,0 5.202,0.792 6.858,2.376 1.692,1.584 2.538,4.122 2.538,7.614 v 19.062 h -7.398 v -17.496 c 0,-1.764 -0.414,-3.042 -1.242,-3.834 -0.828,-0.792 -2.052,-1.188 -3.672,-1.188 -1.656,0 -3.042,0.594 -4.158,1.782 -1.08,1.152 -1.62,2.592 -1.62,4.32 v 16.416 h -7.398 z m 44.784,29.052 c -4.536,0 -7.938,-1.206 -10.206,-3.618 -2.232,-2.412 -3.348,-6.156 -3.348,-11.232 0,-5.04 1.116,-8.766 3.348,-11.178 2.268,-2.448 5.67,-3.672 10.206,-3.672 3.78,0 6.786,0.972 9.018,2.916 2.268,1.908 3.402,4.716 3.402,8.424 h -7.452 c 0,-1.728 -0.45,-3.06 -1.35,-3.996 -0.9,-0.936 -2.16,-1.404 -3.78,-1.404 -2.016,0 -3.51,0.72 -4.482,2.16 -0.936,1.404 -1.404,3.51 -1.404,6.318 v 0.864 c 0,2.808 0.486,4.932 1.458,6.372 1.008,1.404 2.61,2.106 4.806,2.106 1.548,0 2.772,-0.468 3.672,-1.404 0.936,-0.972 1.404,-2.304 1.404,-3.996 h 7.128 c 0,3.708 -1.116,6.534 -3.348,8.478 -2.232,1.908 -5.256,2.862 -9.072,2.862 z m 18.234,-39.69 h 7.398 v 39.042 h -7.398 z m 24.263,39.69 c -2.916,0 -5.22,-0.792 -6.912,-2.376 -1.656,-1.584 -2.484,-4.122 -2.484,-7.614 v -19.062 h 7.398 v 17.496 c 0,1.764 0.414,3.042 1.242,3.834 0.828,0.792 2.052,1.188 3.672,1.188 1.656,0 3.024,-0.576 4.104,-1.728 1.116,-1.188 1.674,-2.646 1.674,-4.374 v -16.416 h 7.398 v 28.404 h -6.318 l -0.54,-3.726 h -0.378 c -2.304,2.916 -5.256,4.374 -8.856,4.374 z m 23.724,-29.052 h 7.398 v 28.404 h -7.398 z m 5.184,-10.638 h 7.182 l 0.054,0.162 -5.832,6.966 h -5.67 z m 19.403,39.69 c -3.6,0 -6.39,-1.224 -8.37,-3.672 -1.98,-2.484 -2.97,-6.228 -2.97,-11.232 0,-4.896 0.99,-8.586 2.97,-11.07 2.016,-2.484 4.68,-3.726 7.992,-3.726 1.908,0 3.582,0.342 5.022,1.026 1.476,0.684 2.628,1.656 3.456,2.916 h 0.324 v -13.932 h 7.398 v 39.042 h -6.318 l -0.486,-3.726 h -0.378 c -0.9,1.44 -2.106,2.538 -3.618,3.294 -1.512,0.72 -3.186,1.08 -5.022,1.08 z m 2.376,-6.426 c 4.032,0 6.048,-2.646 6.048,-7.938 v -0.864 c 0,-5.364 -2.016,-8.046 -6.048,-8.046 -2.196,0 -3.762,0.666 -4.698,1.998 -0.936,1.296 -1.404,3.276 -1.404,5.94 v 0.972 c 0,2.664 0.468,4.662 1.404,5.994 0.936,1.296 2.502,1.944 4.698,1.944 z m 33.768,6.426 c -4.86,0 -8.478,-1.206 -10.854,-3.618 -2.376,-2.412 -3.564,-6.156 -3.564,-11.232 0,-5.076 1.188,-8.82 3.564,-11.232 2.376,-2.412 5.994,-3.618 10.854,-3.618 4.86,0 8.478,1.206 10.854,3.618 2.412,2.412 3.618,6.156 3.618,11.232 0,5.076 -1.206,8.82 -3.618,11.232 -2.376,2.412 -5.994,3.618 -10.854,3.618 z m 0,-6.048 c 2.412,0 4.158,-0.684 5.238,-2.052 1.08,-1.404 1.62,-3.51 1.62,-6.318 v -0.864 c 0,-2.808 -0.54,-4.896 -1.62,-6.264 -1.08,-1.404 -2.826,-2.106 -5.238,-2.106 -2.412,0 -4.158,0.702 -5.238,2.106 -1.044,1.368 -1.566,3.456 -1.566,6.264 v 0.864 c 0,2.808 0.522,4.914 1.566,6.318 1.08,1.368 2.826,2.052 5.238,2.052 z"
         fill="#ffffff"
         id="path162" />
      <path
         d="m 1169.6243,74.912606 h -40 c -13.805,0 -25,-11.195 -25,-25 V 9.9126063 c 0,-13.8049997 11.195,-24.9999993 25,-24.9999993 h 40 c 13.805,0 25,11.1949996 25,24.9999993 V 49.912606 c 0,13.805 -11.195,25 -25,25 z"
         stroke="#04d361"
         stroke-width="6"
         stroke-linecap="round"
         stroke-linejoin="round"
         id="path166" />
      <path
         d="m 1160.9583,24.912606 -14.165,14.165 -8.5,-8.5"
         stroke="#04d361"
         stroke-width="6"
         stroke-linecap="round"
         stroke-linejoin="round"
         id="path168" />
    </g>
  </g>
</svg>
