<?xml version="1.0" encoding="UTF-8" standalone="no"?>
<svg
   xmlns:dc="http://purl.org/dc/elements/1.1/"
   xmlns:cc="http://creativecommons.org/ns#"
   xmlns:rdf="http://www.w3.org/1999/02/22-rdf-syntax-ns#"
   xmlns:svg="http://www.w3.org/2000/svg"
   xmlns="http://www.w3.org/2000/svg"
   xmlns:sodipodi="http://sodipodi.sourceforge.net/DTD/sodipodi-0.dtd"
   xmlns:inkscape="http://www.inkscape.org/namespaces/inkscape"
   sodipodi:docname="finishRequest.svg"
   inkscape:version="1.0 (1.0+r73+1)"
   id="svg48"
   version="1.1"
   viewBox="0 0 380 216"
   height="216mm"
   width="380mm">
  <defs
     id="defs42" />
  <sodipodi:namedview
     inkscape:window-maximized="1"
     inkscape:window-y="0"
     inkscape:window-x="1366"
     inkscape:window-height="1052"
     inkscape:window-width="1920"
     showgrid="false"
     inkscape:document-rotation="0"
     inkscape:current-layer="g304"
     inkscape:document-units="mm"
     inkscape:cy="489.04669"
     inkscape:cx="411.00155"
     inkscape:zoom="0.49497475"
     inkscape:pageshadow="2"
     inkscape:pageopacity="0.0"
     borderopacity="1.0"
     bordercolor="#666666"
     pagecolor="#ffffff"
     id="base" />
  <metadata
     id="metadata45">
    <rdf:RDF>
      <cc:Work
         rdf:about="">
        <dc:format>image/svg+xml</dc:format>
        <dc:type
           rdf:resource="http://purl.org/dc/dcmitype/StillImage" />
        <dc:title></dc:title>
      </cc:Work>
    </rdf:RDF>
  </metadata>
  <g
     id="layer1"
     inkscape:groupmode="layer"
     inkscape:label="Layer 1">
    <g
       transform="matrix(0.26458333,0,0,0.26458333,-73.327379,-38.175594)"
       id="g304"
       style="fill:none">
      <rect
         y="146.28012"
         x="279.18536"
         width="1440"
         height="820"
         fill="#8257e5"
         id="rect50" />
      <path
         d="m 1459.9554,450.51513 c 0,5.642 -4.56,10.217 -10.2,10.217 -5.63,0 -10.2,-4.575 -10.2,-10.217 0,-5.642 4.57,-10.217 10.2,-10.217 5.62,0 10.2,4.575 10.2,10.217 z"
         stroke="#04d361"
         stroke-width="3"
         stroke-miterlimit="10"
         stroke-linecap="round"
         stroke-linejoin="round"
         id="path52" />
      <path
         d="m 1457.1354,457.56313 7.2,7.226"
         stroke="#04d361"
         stroke-width="3"
         stroke-miterlimit="10"
         stroke-linecap="round"
         stroke-linejoin="round"
         id="path54" />
      <path
         d="m 716.03235,420.43413 10.735,10.749"
         stroke="#04d361"
         stroke-width="3"
         stroke-miterlimit="10"
         stroke-linecap="round"
         stroke-linejoin="round"
         id="path56" />
      <path
         d="m 726.76735,420.43413 -10.735,10.749"
         stroke="#04d361"
         stroke-width="3"
         stroke-miterlimit="10"
         stroke-linecap="round"
         stroke-linejoin="round"
         id="path58" />
      <path
         d="m 1331.3454,673.91313 10.73,10.749"
         stroke="#04d361"
         stroke-width="3"
         stroke-miterlimit="10"
         stroke-linecap="round"
         stroke-linejoin="round"
         id="path60" />
      <path
         d="m 1342.0754,673.91313 -10.73,10.749"
         stroke="#04d361"
         stroke-width="3"
         stroke-miterlimit="10"
         stroke-linecap="round"
         stroke-linejoin="round"
         id="path62" />
      <path
         d="m 744.84235,768.41313 v 15.2"
         stroke="#04d361"
         stroke-width="3"
         stroke-miterlimit="10"
         stroke-linecap="round"
         stroke-linejoin="round"
         id="path64" />
      <path
         d="m 752.45135,776.01213 h -15.198"
         stroke="#04d361"
         stroke-width="3"
         stroke-miterlimit="10"
         stroke-linecap="round"
         stroke-linejoin="round"
         id="path66" />
      <path
         d="m 539.88435,517.52713 c 0,5.09 -4.124,9.238 -9.226,9.238 -5.083,0 -9.225,-4.13 -9.225,-9.238 0,-5.091 4.124,-9.238 9.225,-9.238 5.102,0.018 9.226,4.147 9.226,9.238 z"
         stroke="#04d361"
         stroke-width="3"
         stroke-miterlimit="10"
         stroke-linecap="round"
         stroke-linejoin="round"
         id="path68" />
      <path
         d="m 1082.8134,278.33613 c 0,5.091 -4.124,9.238 -9.225,9.238 -5.084,0 -9.226,-4.129 -9.226,-9.238 0,-5.09 4.124,-9.238 9.226,-9.238 5.101,0.018 9.225,4.148 9.225,9.238 z"
         stroke="#04d361"
         stroke-width="3"
         stroke-miterlimit="10"
         stroke-linecap="round"
         stroke-linejoin="round"
         id="path70" />
      <path
         d="m 1218.1564,820.86513 c 0,5.091 -4.124,9.238 -9.225,9.238 -5.084,0 -9.225,-4.13 -9.225,-9.238 0,-5.091 4.123,-9.238 9.225,-9.238 5.101,0.018 9.225,4.147 9.225,9.238 z"
         stroke="#04d361"
         stroke-width="3"
         stroke-miterlimit="10"
         stroke-linecap="round"
         stroke-linejoin="round"
         id="path72" />
      <path
         d="m 443.33135,644.97113 c 1.845,0 3.341,-1.498 3.341,-3.346 0,-1.847 -1.496,-3.345 -3.341,-3.345 -1.845,0 -3.341,1.498 -3.341,3.345 0,1.848 1.496,3.346 3.341,3.346 z"
         fill="#9871f5"
         id="path74" />
      <path
         d="m 466.66935,644.97113 c 1.845,0 3.341,-1.498 3.341,-3.346 0,-1.847 -1.496,-3.345 -3.341,-3.345 -1.845,0 -3.341,1.498 -3.341,3.345 0,1.848 1.496,3.346 3.341,3.346 z"
         fill="#9871f5"
         id="path76" />
      <path
         d="m 489.99035,644.97113 c 1.845,0 3.341,-1.498 3.341,-3.346 0,-1.847 -1.496,-3.345 -3.341,-3.345 -1.845,0 -3.341,1.498 -3.341,3.345 0,1.848 1.496,3.346 3.341,3.346 z"
         fill="#9871f5"
         id="path78" />
      <path
         d="m 513.32935,644.97113 c 1.845,0 3.341,-1.498 3.341,-3.346 0,-1.847 -1.496,-3.345 -3.341,-3.345 -1.845,0 -3.341,1.498 -3.341,3.345 0,1.848 1.496,3.346 3.341,3.346 z"
         fill="#9871f5"
         id="path80" />
      <path
         d="m 536.65035,644.97113 c 1.845,0 3.341,-1.498 3.341,-3.346 0,-1.847 -1.496,-3.345 -3.341,-3.345 -1.845,0 -3.341,1.498 -3.341,3.345 0,1.848 1.496,3.346 3.341,3.346 z"
         fill="#9871f5"
         id="path82" />
      <path
         d="m 559.98835,644.97113 c 1.846,0 3.341,-1.498 3.341,-3.346 0,-1.847 -1.495,-3.345 -3.341,-3.345 -1.845,0 -3.341,1.498 -3.341,3.345 0,1.848 1.496,3.346 3.341,3.346 z"
         fill="#9871f5"
         id="path84" />
      <path
         d="m 443.33035,668.32413 c 1.846,0 3.341,-1.498 3.341,-3.346 0,-1.848 -1.495,-3.345 -3.341,-3.345 -1.845,0 -3.341,1.497 -3.341,3.345 0,1.848 1.496,3.346 3.341,3.346 z"
         fill="#9871f5"
         id="path86" />
      <path
         d="m 466.66935,668.32413 c 1.845,0 3.341,-1.498 3.341,-3.346 0,-1.848 -1.496,-3.345 -3.341,-3.345 -1.845,0 -3.341,1.497 -3.341,3.345 0,1.848 1.496,3.346 3.341,3.346 z"
         fill="#9871f5"
         id="path88" />
      <path
         d="m 489.99035,668.32413 c 1.846,0 3.342,-1.498 3.342,-3.346 0,-1.848 -1.496,-3.345 -3.342,-3.345 -1.845,0 -3.341,1.497 -3.341,3.345 0,1.848 1.496,3.346 3.341,3.346 z"
         fill="#9871f5"
         id="path90" />
      <path
         d="m 513.32935,668.32413 c 1.845,0 3.341,-1.498 3.341,-3.346 0,-1.848 -1.496,-3.345 -3.341,-3.345 -1.845,0 -3.341,1.497 -3.341,3.345 0,1.848 1.496,3.346 3.341,3.346 z"
         fill="#9871f5"
         id="path92" />
      <path
         d="m 536.65035,668.32413 c 1.845,0 3.341,-1.498 3.341,-3.346 0,-1.848 -1.496,-3.345 -3.341,-3.345 -1.845,0 -3.341,1.497 -3.341,3.345 0,1.848 1.496,3.346 3.341,3.346 z"
         fill="#9871f5"
         id="path94" />
      <path
         d="m 559.98835,668.32413 c 1.846,0 3.341,-1.498 3.341,-3.346 0,-1.848 -1.495,-3.345 -3.341,-3.345 -1.845,0 -3.341,1.497 -3.341,3.345 0,1.848 1.496,3.346 3.341,3.346 z"
         fill="#9871f5"
         id="path96" />
      <path
         d="m 443.33035,691.69513 c 1.846,0 3.341,-1.498 3.341,-3.346 0,-1.848 -1.495,-3.346 -3.341,-3.346 -1.845,0 -3.341,1.498 -3.341,3.346 0,1.848 1.496,3.346 3.341,3.346 z"
         fill="#9871f5"
         id="path98" />
      <path
         d="m 466.66935,691.69513 c 1.845,0 3.341,-1.498 3.341,-3.346 0,-1.848 -1.496,-3.346 -3.341,-3.346 -1.845,0 -3.341,1.498 -3.341,3.346 0,1.848 1.496,3.346 3.341,3.346 z"
         fill="#9871f5"
         id="path100" />
      <path
         d="m 489.99035,691.69513 c 1.846,0 3.342,-1.498 3.342,-3.346 0,-1.848 -1.496,-3.346 -3.342,-3.346 -1.845,0 -3.341,1.498 -3.341,3.346 0,1.848 1.496,3.346 3.341,3.346 z"
         fill="#9871f5"
         id="path102" />
      <path
         d="m 513.32935,691.69513 c 1.845,0 3.341,-1.498 3.341,-3.346 0,-1.848 -1.496,-3.346 -3.341,-3.346 -1.845,0 -3.341,1.498 -3.341,3.346 0,1.848 1.496,3.346 3.341,3.346 z"
         fill="#9871f5"
         id="path104" />
      <path
         d="m 536.65035,691.69513 c 1.845,0 3.341,-1.498 3.341,-3.346 0,-1.848 -1.496,-3.346 -3.341,-3.346 -1.845,0 -3.341,1.498 -3.341,3.346 0,1.848 1.496,3.346 3.341,3.346 z"
         fill="#9871f5"
         id="path106" />
      <path
         d="m 559.98835,691.69513 c 1.846,0 3.341,-1.498 3.341,-3.346 0,-1.848 -1.495,-3.346 -3.341,-3.346 -1.845,0 -3.341,1.498 -3.341,3.346 0,1.848 1.496,3.346 3.341,3.346 z"
         fill="#9871f5"
         id="path108" />
      <path
         d="m 443.33035,715.04813 c 1.846,0 3.341,-1.498 3.341,-3.346 0,-1.848 -1.495,-3.346 -3.341,-3.346 -1.845,0 -3.341,1.498 -3.341,3.346 0,1.848 1.496,3.346 3.341,3.346 z"
         fill="#9871f5"
         id="path110" />
      <path
         d="m 466.66935,715.04813 c 1.845,0 3.341,-1.498 3.341,-3.346 0,-1.848 -1.496,-3.346 -3.341,-3.346 -1.845,0 -3.341,1.498 -3.341,3.346 0,1.848 1.496,3.346 3.341,3.346 z"
         fill="#9871f5"
         id="path112" />
      <path
         d="m 489.99035,715.04813 c 1.846,0 3.342,-1.498 3.342,-3.346 0,-1.848 -1.496,-3.346 -3.342,-3.346 -1.845,0 -3.341,1.498 -3.341,3.346 0,1.848 1.496,3.346 3.341,3.346 z"
         fill="#9871f5"
         id="path114" />
      <path
         d="m 513.32935,715.04813 c 1.845,0 3.341,-1.498 3.341,-3.346 0,-1.848 -1.496,-3.346 -3.341,-3.346 -1.845,0 -3.341,1.498 -3.341,3.346 0,1.848 1.496,3.346 3.341,3.346 z"
         fill="#9871f5"
         id="path116" />
      <path
         d="m 536.65035,715.04813 c 1.845,0 3.341,-1.498 3.341,-3.346 0,-1.848 -1.496,-3.346 -3.341,-3.346 -1.845,0 -3.341,1.498 -3.341,3.346 0,1.848 1.496,3.346 3.341,3.346 z"
         fill="#9871f5"
         id="path118" />
      <path
         d="m 559.98835,715.04813 c 1.846,0 3.341,-1.498 3.341,-3.346 0,-1.848 -1.495,-3.346 -3.341,-3.346 -1.845,0 -3.341,1.498 -3.341,3.346 0,1.848 1.496,3.346 3.341,3.346 z"
         fill="#9871f5"
         id="path120" />
      <path
         d="m 1213.1614,411.89713 c 1.846,0 3.342,-1.497 3.342,-3.345 0,-1.848 -1.496,-3.346 -3.342,-3.346 -1.845,0 -3.341,1.498 -3.341,3.346 0,1.848 1.496,3.345 3.341,3.345 z"
         fill="#9871f5"
         id="path122" />
      <path
         d="m 1236.4824,411.89713 c 1.845,0 3.341,-1.497 3.341,-3.345 0,-1.848 -1.496,-3.346 -3.341,-3.346 -1.845,0 -3.341,1.498 -3.341,3.346 0,1.848 1.496,3.345 3.341,3.345 z"
         fill="#9871f5"
         id="path124" />
      <path
         d="m 1259.8214,411.89713 c 1.845,0 3.341,-1.497 3.341,-3.345 0,-1.848 -1.496,-3.346 -3.341,-3.346 -1.846,0 -3.342,1.498 -3.342,3.346 0,1.848 1.496,3.345 3.342,3.345 z"
         fill="#9871f5"
         id="path126" />
      <path
         d="m 1213.1614,435.26813 c 1.845,0 3.341,-1.498 3.341,-3.346 0,-1.847 -1.496,-3.345 -3.341,-3.345 -1.845,0 -3.341,1.498 -3.341,3.345 0,1.848 1.496,3.346 3.341,3.346 z"
         fill="#9871f5"
         id="path128" />
      <path
         d="m 1236.4824,435.26813 c 1.845,0 3.341,-1.498 3.341,-3.346 0,-1.847 -1.496,-3.345 -3.341,-3.345 -1.845,0 -3.341,1.498 -3.341,3.345 0,1.848 1.496,3.346 3.341,3.346 z"
         fill="#9871f5"
         id="path130" />
      <path
         d="m 1259.8214,435.26813 c 1.845,0 3.341,-1.498 3.341,-3.346 0,-1.847 -1.496,-3.345 -3.341,-3.345 -1.846,0 -3.342,1.498 -3.342,3.345 0,1.848 1.496,3.346 3.342,3.346 z"
         fill="#9871f5"
         id="path132" />
      <path
         d="m 700.89035,289.71313 c 1.845,0 3.341,-1.498 3.341,-3.346 0,-1.847 -1.496,-3.345 -3.341,-3.345 -1.846,0 -3.341,1.498 -3.341,3.345 0,1.848 1.495,3.346 3.341,3.346 z"
         fill="#9871f5"
         id="path134" />
      <path
         d="m 724.21035,289.71313 c 1.845,0 3.341,-1.498 3.341,-3.346 0,-1.847 -1.496,-3.345 -3.341,-3.345 -1.845,0 -3.341,1.498 -3.341,3.345 0,1.848 1.496,3.346 3.341,3.346 z"
         fill="#9871f5"
         id="path136" />
      <path
         d="m 747.54835,289.71313 c 1.846,0 3.341,-1.498 3.341,-3.346 0,-1.847 -1.495,-3.345 -3.341,-3.345 -1.845,0 -3.341,1.498 -3.341,3.345 0,1.848 1.496,3.346 3.341,3.346 z"
         fill="#9871f5"
         id="path138" />
      <path
         d="m 700.88935,313.08413 c 1.846,0 3.341,-1.498 3.341,-3.346 0,-1.848 -1.495,-3.346 -3.341,-3.346 -1.845,0 -3.341,1.498 -3.341,3.346 0,1.848 1.496,3.346 3.341,3.346 z"
         fill="#9871f5"
         id="path140" />
      <path
         d="m 724.21035,313.08413 c 1.845,0 3.341,-1.498 3.341,-3.346 0,-1.848 -1.496,-3.346 -3.341,-3.346 -1.845,0 -3.341,1.498 -3.341,3.346 0,1.848 1.496,3.346 3.341,3.346 z"
         fill="#9871f5"
         id="path142" />
      <path
         d="m 747.55035,313.08413 c 1.845,0 3.341,-1.498 3.341,-3.346 0,-1.848 -1.496,-3.346 -3.341,-3.346 -1.846,0 -3.342,1.498 -3.342,3.346 0,1.848 1.496,3.346 3.342,3.346 z"
         fill="#9871f5"
         id="path144" />
      <path
         d="m 1555.8454,644.97113 c 1.84,0 3.34,-1.497 3.34,-3.345 0,-1.848 -1.5,-3.346 -3.34,-3.346 -1.85,0 -3.34,1.498 -3.34,3.346 0,1.848 1.49,3.345 3.34,3.345 z"
         fill="#9871f5"
         id="path146" />
      <path
         d="m 1555.8454,668.34213 c 1.84,0 3.34,-1.498 3.34,-3.346 0,-1.847 -1.5,-3.345 -3.34,-3.345 -1.85,0 -3.34,1.498 -3.34,3.345 0,1.848 1.49,3.346 3.34,3.346 z"
         fill="#9871f5"
         id="path148" />
      <path
         d="m 1555.8454,691.69513 c 1.84,0 3.34,-1.498 3.34,-3.346 0,-1.848 -1.5,-3.346 -3.34,-3.346 -1.85,0 -3.34,1.498 -3.34,3.346 0,1.848 1.49,3.346 3.34,3.346 z"
         fill="#9871f5"
         id="path150" />
      <path
         d="m 1555.8454,715.06513 c 1.84,0 3.34,-1.498 3.34,-3.345 0,-1.848 -1.5,-3.346 -3.34,-3.346 -1.85,0 -3.34,1.498 -3.34,3.346 0,1.847 1.49,3.345 3.34,3.345 z"
         fill="#9871f5"
         id="path152" />
      <path
         d="m 1555.8454,738.41813 c 1.84,0 3.34,-1.497 3.34,-3.345 0,-1.848 -1.5,-3.346 -3.34,-3.346 -1.85,0 -3.34,1.498 -3.34,3.346 0,1.848 1.49,3.345 3.34,3.345 z"
         fill="#9871f5"
         id="path154" />
      <path
         d="m 1555.8454,761.78913 c 1.84,0 3.34,-1.498 3.34,-3.346 0,-1.848 -1.5,-3.346 -3.34,-3.346 -1.85,0 -3.34,1.498 -3.34,3.346 0,1.848 1.49,3.346 3.34,3.346 z"
         fill="#9871f5"
         id="path156" />
      <path
         d="m 1555.8454,785.14213 c 1.84,0 3.34,-1.498 3.34,-3.346 0,-1.848 -1.5,-3.346 -3.34,-3.346 -1.85,0 -3.34,1.498 -3.34,3.346 0,1.848 1.49,3.346 3.34,3.346 z"
         fill="#9871f5"
         id="path158" />
      <path
         d="m 1532.5054,644.97113 c 1.85,0 3.34,-1.497 3.34,-3.345 0,-1.848 -1.49,-3.346 -3.34,-3.346 -1.84,0 -3.34,1.498 -3.34,3.346 0,1.848 1.5,3.345 3.34,3.345 z"
         fill="#9871f5"
         id="path160" />
      <path
         d="m 1532.5054,668.34213 c 1.85,0 3.34,-1.498 3.34,-3.346 0,-1.847 -1.49,-3.345 -3.34,-3.345 -1.84,0 -3.34,1.498 -3.34,3.345 0,1.848 1.5,3.346 3.34,3.346 z"
         fill="#9871f5"
         id="path162" />
      <path
         d="m 1532.5054,691.69513 c 1.85,0 3.34,-1.498 3.34,-3.346 0,-1.848 -1.49,-3.346 -3.34,-3.346 -1.84,0 -3.34,1.498 -3.34,3.346 0,1.848 1.5,3.346 3.34,3.346 z"
         fill="#9871f5"
         id="path164" />
      <path
         d="m 1532.5054,715.06513 c 1.85,0 3.34,-1.498 3.34,-3.345 0,-1.848 -1.49,-3.346 -3.34,-3.346 -1.84,0 -3.34,1.498 -3.34,3.346 0,1.847 1.5,3.345 3.34,3.345 z"
         fill="#9871f5"
         id="path166" />
      <path
         d="m 1532.5054,738.41813 c 1.85,0 3.34,-1.497 3.34,-3.345 0,-1.848 -1.49,-3.346 -3.34,-3.346 -1.84,0 -3.34,1.498 -3.34,3.346 0,1.848 1.5,3.345 3.34,3.345 z"
         fill="#9871f5"
         id="path168" />
      <path
         d="m 1532.5054,761.78913 c 1.85,0 3.34,-1.498 3.34,-3.346 0,-1.848 -1.49,-3.346 -3.34,-3.346 -1.84,0 -3.34,1.498 -3.34,3.346 0,1.848 1.5,3.346 3.34,3.346 z"
         fill="#9871f5"
         id="path170" />
      <path
         d="m 1532.5054,785.14213 c 1.85,0 3.34,-1.498 3.34,-3.346 0,-1.848 -1.49,-3.346 -3.34,-3.346 -1.84,0 -3.34,1.498 -3.34,3.346 0,1.848 1.5,3.346 3.34,3.346 z"
         fill="#9871f5"
         id="path172" />
      <path
         d="m 1509.1854,644.97113 c 1.84,0 3.34,-1.497 3.34,-3.345 0,-1.848 -1.5,-3.346 -3.34,-3.346 -1.85,0 -3.34,1.498 -3.34,3.346 0,1.848 1.49,3.345 3.34,3.345 z"
         fill="#9871f5"
         id="path174" />
      <path
         d="m 1509.1854,668.34213 c 1.84,0 3.34,-1.498 3.34,-3.346 0,-1.847 -1.5,-3.345 -3.34,-3.345 -1.85,0 -3.34,1.498 -3.34,3.345 0,1.848 1.49,3.346 3.34,3.346 z"
         fill="#9871f5"
         id="path176" />
      <path
         d="m 1509.1854,691.69513 c 1.84,0 3.34,-1.498 3.34,-3.346 0,-1.848 -1.5,-3.346 -3.34,-3.346 -1.85,0 -3.34,1.498 -3.34,3.346 0,1.848 1.49,3.346 3.34,3.346 z"
         fill="#9871f5"
         id="path178" />
      <path
         d="m 1509.1854,715.06513 c 1.84,0 3.34,-1.498 3.34,-3.345 0,-1.848 -1.5,-3.346 -3.34,-3.346 -1.85,0 -3.34,1.498 -3.34,3.346 0,1.847 1.49,3.345 3.34,3.345 z"
         fill="#9871f5"
         id="path180" />
      <path
         d="m 1509.1854,738.41813 c 1.84,0 3.34,-1.497 3.34,-3.345 0,-1.848 -1.5,-3.346 -3.34,-3.346 -1.85,0 -3.34,1.498 -3.34,3.346 0,1.848 1.49,3.345 3.34,3.345 z"
         fill="#9871f5"
         id="path182" />
      <path
         d="m 1509.1854,761.78913 c 1.84,0 3.34,-1.498 3.34,-3.346 0,-1.848 -1.5,-3.346 -3.34,-3.346 -1.85,0 -3.34,1.498 -3.34,3.346 0,1.848 1.49,3.346 3.34,3.346 z"
         fill="#9871f5"
         id="path184" />
      <path
         d="m 1509.1854,785.14213 c 1.84,0 3.34,-1.498 3.34,-3.346 0,-1.848 -1.5,-3.346 -3.34,-3.346 -1.85,0 -3.34,1.498 -3.34,3.346 0,1.848 1.49,3.346 3.34,3.346 z"
         fill="#9871f5"
         id="path186" />
      <path
         d="m 1485.8454,644.97113 c 1.85,0 3.34,-1.497 3.34,-3.345 0,-1.848 -1.49,-3.346 -3.34,-3.346 -1.84,0 -3.34,1.498 -3.34,3.346 0,1.848 1.5,3.345 3.34,3.345 z"
         fill="#9871f5"
         id="path188" />
      <path
         d="m 1485.8454,668.34213 c 1.85,0 3.34,-1.498 3.34,-3.346 0,-1.847 -1.49,-3.345 -3.34,-3.345 -1.85,0 -3.34,1.498 -3.34,3.345 0,1.848 1.49,3.346 3.34,3.346 z"
         fill="#9871f5"
         id="path190" />
      <path
         d="m 1485.8454,691.69513 c 1.85,0 3.34,-1.498 3.34,-3.346 0,-1.848 -1.49,-3.346 -3.34,-3.346 -1.85,0 -3.34,1.498 -3.34,3.346 0,1.848 1.49,3.346 3.34,3.346 z"
         fill="#9871f5"
         id="path192" />
      <path
         d="m 1485.8454,715.06513 c 1.85,0 3.34,-1.498 3.34,-3.345 0,-1.848 -1.49,-3.346 -3.34,-3.346 -1.85,0 -3.34,1.498 -3.34,3.346 0,1.847 1.49,3.345 3.34,3.345 z"
         fill="#9871f5"
         id="path194" />
      <path
         d="m 1485.8454,738.41813 c 1.85,0 3.34,-1.497 3.34,-3.345 0,-1.848 -1.49,-3.346 -3.34,-3.346 -1.85,0 -3.34,1.498 -3.34,3.346 0,1.848 1.49,3.345 3.34,3.345 z"
         fill="#9871f5"
         id="path196" />
      <path
         d="m 1485.8454,761.78913 c 1.85,0 3.34,-1.498 3.34,-3.346 0,-1.848 -1.49,-3.346 -3.34,-3.346 -1.85,0 -3.34,1.498 -3.34,3.346 0,1.848 1.49,3.346 3.34,3.346 z"
         fill="#9871f5"
         id="path198" />
      <path
         d="m 1485.8454,785.14213 c 1.85,0 3.34,-1.498 3.34,-3.346 0,-1.848 -1.49,-3.346 -3.34,-3.346 -1.85,0 -3.34,1.498 -3.34,3.346 0,1.848 1.49,3.346 3.34,3.346 z"
         fill="#9871f5"
         id="path200" />
      <path
         d="m 1020.1854,454.28013 h -40.00005 c -13.805,0 -25,-11.195 -25,-25 v -40 c 0,-13.805 11.195,-25 25,-25 h 40.00005 c 13.805,0 25,11.195 25,25 v 40 c 0,13.805 -11.195,25 -25,25 z"
         stroke="#04d361"
         stroke-width="6"
         stroke-linecap="round"
         stroke-linejoin="round"
         id="path206" />
      <path
         d="m 1011.5194,404.28013 -14.16505,14.165 -8.5,-8.5"
         stroke="#04d361"
         stroke-width="6"
         stroke-linecap="round"
         stroke-linejoin="round"
         id="path208" />
    </g>
  </g>
</svg>
